<?xml version="1.0" encoding="iso-8859-1"?>
<!-- Uploaded to: SVG Repo, www.svgrepo.com, Transformed by: SVG Repo Tools -->
<!DOCTYPE svg PUBLIC "-//W3C//DTD SVG 1.1//EN" "http://www.w3.org/Graphics/SVG/1.1/DTD/svg11.dtd">
<svg fill="#000000" height="800px" width="800px" version="1.1" id="Capa_1" xmlns="http://www.w3.org/2000/svg" xmlns:xlink="http://www.w3.org/1999/xlink" 
	 viewBox="0 0 219.781 219.781" xml:space="preserve">
<g>
	<path d="M193.692,168.797l-30.414-39.507h8.898c0.006,0,0.014,0,0.02,0c4.143,0,7.5-3.358,7.5-7.5c0-1.898-0.704-3.631-1.867-4.953
		L149.265,79.73h10.455c0.009,0,0.015,0,0.02,0c4.143,0,7.5-3.358,7.5-7.5c0-1.898-0.704-3.631-1.867-4.953L115.833,2.925
		C114.413,1.081,112.217,0,109.89,0c-2.327,0-4.523,1.081-5.943,2.925l-49.83,64.73c-1.743,2.265-2.048,5.323-0.786,7.888
		c1.263,2.563,3.872,4.188,6.729,4.188h10.455l-28.855,37.485c-1.743,2.264-2.048,5.323-0.786,7.887
		c1.263,2.564,3.872,4.188,6.729,4.188h8.898l-30.412,39.507c-1.743,2.264-2.048,5.323-0.786,7.887
		c1.263,2.564,3.872,4.188,6.729,4.188h50.902v31.409c0,4.142,3.357,7.5,7.5,7.5h38.91c4.143,0,7.5-3.358,7.5-7.5v-31.409h50.904
		c2.857,0,5.467-1.624,6.73-4.188C195.74,174.12,195.436,171.061,193.692,168.797z M121.845,204.781h-23.91v-23.909h23.91V204.781z
		 M129.345,165.872h-38.91H47.271l30.412-39.507c1.743-2.264,2.048-5.323,0.786-7.887c-1.263-2.564-3.872-4.188-6.729-4.188h-8.898
		l28.855-37.485c1.743-2.264,2.048-5.323,0.786-7.887c-1.263-2.564-3.872-4.188-6.729-4.188H75.298l34.592-44.936l34.592,44.936
		h-10.455c-2.857,0-5.467,1.624-6.729,4.188c-1.262,2.564-0.957,5.623,0.786,7.887l28.856,37.485h-8.899
		c-2.857,0-5.467,1.624-6.729,4.188c-1.262,2.564-0.957,5.623,0.786,7.887l30.414,39.507H129.345z"/>
	<path d="M118.483,52.457c0-4.744-3.855-8.604-8.594-8.604c-4.738,0-8.594,3.859-8.594,8.604c0,4.722,3.855,8.563,8.594,8.563
		C114.628,61.02,118.483,57.179,118.483,52.457z"/>
	<path d="M96.89,100.854c-4.738,0-8.594,3.859-8.594,8.604c0,4.722,3.855,8.563,8.594,8.563c4.738,0,8.594-3.841,8.594-8.563
		C105.483,104.713,101.628,100.854,96.89,100.854z"/>
	<path d="M131.483,95.457c0-4.744-3.855-8.604-8.594-8.604c-4.738,0-8.594,3.859-8.594,8.604c0,4.722,3.855,8.563,8.594,8.563
		C127.628,104.02,131.483,100.179,131.483,95.457z"/>
	<path d="M89.741,138.851c-2.296,0-4.457,0.896-6.084,2.523c-3.339,3.339-3.329,8.781,0.021,12.132
		c1.632,1.631,3.793,2.528,6.087,2.528c2.281,0,4.428-0.89,6.044-2.506c1.627-1.626,2.524-3.786,2.526-6.079
		c0.002-2.296-0.894-4.456-2.521-6.083C94.193,139.744,92.036,138.851,89.741,138.851z"/>
	<path d="M131.025,133.851c-2.297,0-4.458,0.896-6.085,2.523c-1.629,1.629-2.519,3.794-2.503,6.098
		c0.014,2.276,0.911,4.419,2.526,6.034c1.629,1.63,3.79,2.528,6.085,2.528c2.281,0,4.428-0.89,6.044-2.506
		c1.627-1.624,2.525-3.784,2.527-6.079c0.002-2.294-0.893-4.454-2.518-6.081C135.479,134.744,133.32,133.851,131.025,133.851z"/>
</g>
<g>
</g>
<g>
</g>
<g>
</g>
<g>
</g>
<g>
</g>
<g>
</g>
<g>
</g>
<g>
</g>
<g>
</g>
<g>
</g>
<g>
</g>
<g>
</g>
<g>
</g>
<g>
</g>
<g>
</g>
</svg>