<?xml version="1.0" encoding="utf-8"?>
<!-- Generator: Adobe Illustrator 27.0.0, SVG Export Plug-In . SVG Version: 6.00 Build 0)  -->
<svg version="1.1" id="Livello_1" xmlns="http://www.w3.org/2000/svg" xmlns:xlink="http://www.w3.org/1999/xlink" x="0px" y="0px"
	 viewBox="0 0 800 378" style="enable-background:new 0 0 800 378;" xml:space="preserve">
<style type="text/css">
	.st0{fill:#FFFFFF;}
</style>
<g>
	<g>
		<g>
			<g>
				<path class="st0" d="M450.4,303.1c2.1,41.9-61.7,42.2-60.7,0.8c-1.5-30.4,40.5-43,56.8-17l-7.3,4.5c-12-17.8-42.3-9.7-41.3,12.4
					c-1.8,24.7,36.8,31.2,42.7,7.1h-22.1v-8.8h31.9V303.1z"/>
			</g>
			<g>
				<path class="st0" d="M641.5,303.9c1.2,41.1-62.7,41-61.6,0C579.1,263,642.4,262.9,641.5,303.9 M633.2,303.9
					c1.2-29.2-46.3-29.2-45.1,0C586.5,333.2,634.9,333.2,633.2,303.9"/>
			</g>
		</g>
		<g>
			<path class="st0" d="M469.4,324.4l0.2-17.4l24.4,0.4l0.1-8.8l-24.4-0.4l0.1-15.1l36.6,0.5l0.1-8.7c-1.4,0-49.8-0.7-49-0.7l0,2.1
				l4.5,5.2l-0.5,51.5l46.3,0.7l0.1-8.8L469.4,324.4z"/>
		</g>
		<g>
			<polygon class="st0" points="744.9,274.6 744.9,276.8 749.5,281.9 749.5,333.4 757.4,333.4 757.4,285.2 790.2,333.4 800,333.4 
				800,274.6 787.5,274.6 787.5,276.8 792.1,281.9 792.1,322.8 759.3,274.6 			"/>
		</g>
		<g>
			<polygon class="st0" points="720.4,274.6 720.4,276.8 725,281.9 725,333.4 732.9,333.4 732.9,274.6 			"/>
		</g>
		<g>
			<path class="st0" d="M700.4,274.6L681,310.1l-19.3-35.5c-3.7,0-10.8,0-14.4,0v2.1l4.6,5.1v51.5h7.9v-48h0.2l21,38.3l21.2-38.3
				h0.2v48h7.9v-58.7H700.4z"/>
		</g>
		<g>
			<path class="st0" d="M515.4,274.7v2.1l4.6,5.1v51.4h7.9v-22.3c15.8-1.8,34.3,2.9,33.9,22.3h8.2c0-9.5-3.3-17.5-9.8-23.5
				c11.5-3.6,12.4-22.2,5.6-30.1C559.9,270.5,524.3,276.2,515.4,274.7z M527.9,302.2v-18.8c8.6,1.6,35.4-5.7,34,9.7
				c0,6-3,9.1-9.1,9.1H527.9z"/>
		</g>
		<g>
			<path class="st0" d="M60.8,303.1C62.9,345-1,345.3,0,303.9c-1.5-30.4,40.5-43,56.8-17l-7.3,4.5c-12-17.8-42.3-9.7-41.3,12.4
				C6.4,328.6,45,335.1,50.9,311H28.8v-8.8h31.9V303.1z"/>
		</g>
		<g>
			<path class="st0" d="M364.7,303.9c1.2,41.1-62.7,41-61.6,0C302.3,263,365.6,262.9,364.7,303.9 M356.4,303.9
				c1.2-29.2-46.3-29.2-45.1,0C309.7,333.2,358.1,333.2,356.4,303.9"/>
		</g>
		<g>
			<path class="st0" d="M66.8,274.7v2.1l4.6,5.1v51.4h7.9v-22.3c15.8-1.8,34.3,2.9,33.9,22.3h8.2c0-9.5-3.3-17.5-9.8-23.5
				c11.5-3.6,12.4-22.2,5.6-30.1C111.3,270.5,75.7,276.2,66.8,274.7z M79.3,302.2v-18.8c8.6,1.6,35.4-5.7,34,9.7c0,6-3,9.1-9.1,9.1
				H79.3z"/>
		</g>
		<g>
			<path class="st0" d="M204.7,283.4c8.3,1.4,31.9-5.2,30.6,9.7c1.3,14.3-22.7,7.6-30.6,9.1V283.4z M224.7,310.9
				c5.4,0,8.9-1.2,8.8-1.1c11.5-3.6,12.5-22.2,5.6-30.1c-5.8-9-38-3.6-46.8-5v2.1l4.6,5.1v51.4h7.9v-22.3L224.7,310.9z"/>
		</g>
		<g>
			<path class="st0" d="M260.8,283.4c8.3,1.4,31.9-5.2,30.6,9.7c1.3,14.3-22.7,7.6-30.6,9.1V283.4z M280.8,310.9
				c5.4,0,8.9-1.2,8.8-1.1c11.5-3.6,12.4-22.2,5.6-30.1c-5.8-9-38-3.6-46.8-5v2.1l4.6,5.1v51.4h7.9v-22.3L280.8,310.9z"/>
		</g>
		<g>
			<path class="st0" d="M183.8,274.7h-8V309c0.5,10.2-2.7,18.9-16,18.4c-13.6,1.4-20.2-5.2-18.9-18.2c0,0,0-34.5,0-34.5
				c-2.8,0-9.5,0-12.3,0v2.1l4.4,4.9c0.5,7.1-1,34.5,0.8,40.5c3.9,16.8,31.2,15.8,41.2,10.1c9.1-7.5,8.3-11,8.9-19.3
				C183.8,312.9,183.8,274.7,183.8,274.7z"/>
		</g>
	</g>
	<g>
		<path class="st0" d="M448.3,136.7l0.3,14.4c30.3-15,112.8,25.1,156.5,1.6l0.1-15.8C558.9,161.7,486.4,122.3,448.3,136.7"/>
	</g>
	<g>
		<path class="st0" d="M524.8,194.2C48.2,261.5,320.5,16.8,606.2,13V0C76.9,33.6,33,355.3,606.2,186.8v-14
			C580.9,181,553.5,188.3,524.8,194.2"/>
	</g>
	<g>
		<path class="st0" d="M303.3,354.6l-8.5,23.2h-4.5l-8.5-23.2h4c0.4,0,0.8,0.1,1,0.3c0.3,0.2,0.5,0.5,0.6,0.8l4.1,12.4
			c0.2,0.5,0.4,1.1,0.6,1.8c0.2,0.6,0.4,1.3,0.5,2c0.1-0.7,0.3-1.4,0.5-2c0.2-0.6,0.4-1.2,0.5-1.8l4.1-12.4c0.1-0.3,0.3-0.6,0.6-0.8
			s0.6-0.4,1-0.4H303.3z"/>
		<path class="st0" d="M314.3,358.7v5.4h6.7v4h-6.7v5.5h8.7v4.1h-13.7v-23.2H323v4.1H314.3z"/>
		<path class="st0" d="M349,354.6v23.2h-2.6c-0.4,0-0.7-0.1-1-0.2c-0.3-0.1-0.5-0.4-0.8-0.7l-10-13.8c0,0.4,0.1,0.8,0.1,1.2
			c0,0.4,0,0.7,0,1.1v12.4h-4.3v-23.2h2.6c0.2,0,0.4,0,0.5,0c0.1,0,0.3,0.1,0.4,0.1c0.1,0.1,0.2,0.1,0.3,0.2
			c0.1,0.1,0.2,0.2,0.4,0.4l10.1,13.9c0-0.4-0.1-0.9-0.1-1.3c0-0.4,0-0.8,0-1.2v-12.3H349z"/>
		<path class="st0" d="M362.4,358.7v5.4h6.7v4h-6.7v5.5h8.7v4.1h-13.7v-23.2h13.7v4.1H362.4z"/>
		<path class="st0" d="M393.6,356.5c0,0.3,0,0.5-0.1,0.8c-0.1,0.3-0.2,0.5-0.3,0.7l-10,15.5h10.1v4.1h-16.4v-2.1
			c0-0.2,0-0.5,0.1-0.7s0.2-0.5,0.3-0.7l10-15.6h-9.6v-4.1h15.9V356.5z"/>
		<path class="st0" d="M405.6,377.7h-5v-23.2h5V377.7z"/>
		<path class="st0" d="M433.2,377.7h-3.8c-0.4,0-0.8-0.1-1-0.3s-0.5-0.5-0.6-0.8l-1.3-4h-8.1l-1.3,4c-0.1,0.3-0.3,0.6-0.6,0.8
			s-0.6,0.4-1,0.4h-3.8l8.2-23.2h5L433.2,377.7z M425.3,368.9l-2-6.3c-0.1-0.4-0.3-0.9-0.5-1.4c-0.2-0.5-0.3-1.1-0.5-1.8
			c-0.1,0.6-0.3,1.2-0.5,1.8c-0.2,0.6-0.3,1-0.5,1.4l-2,6.3H425.3z"/>
		<path class="st0" d="M456.8,374.2v3.6h-12.1v-3.6h4.1v-11.7c0-0.3,0-0.6,0-0.9c0-0.3,0-0.6,0-0.9l-2.4,2.2
			c-0.2,0.2-0.4,0.3-0.6,0.3c-0.2,0-0.4,0-0.6,0c-0.2,0-0.4-0.1-0.5-0.2c-0.1-0.1-0.3-0.2-0.3-0.3l-1.4-2.1l6.6-6.1h3.7v19.6H456.8z
			"/>
		<path class="st0" d="M468.9,369c0.1-0.2,0.3-0.4,0.4-0.5c0.1-0.2,0.2-0.3,0.4-0.5c-0.9,0.5-1.9,0.8-3.1,0.8
			c-0.7,0-1.4-0.1-2.1-0.4c-0.7-0.3-1.3-0.7-1.9-1.2c-0.6-0.6-1-1.2-1.4-2.1c-0.4-0.8-0.5-1.8-0.5-3c0-1,0.2-2,0.5-3
			c0.4-0.9,0.9-1.7,1.5-2.4c0.7-0.7,1.4-1.3,2.4-1.7c0.9-0.4,1.9-0.6,3.1-0.6c1.1,0,2.2,0.2,3.1,0.6c0.9,0.4,1.7,0.9,2.3,1.6
			c0.6,0.7,1.1,1.5,1.4,2.5s0.5,2,0.5,3.1c0,1.5-0.2,2.9-0.6,4.1c-0.4,1.2-1,2.3-1.7,3.4l-4.6,7.1c-0.2,0.3-0.5,0.6-0.9,0.8
			c-0.4,0.2-0.9,0.3-1.4,0.3h-4.2L468.9,369z M465.3,361.7c0,2.3,1,3.5,2.9,3.5c1,0,1.7-0.3,2.2-0.9c0.5-0.6,0.8-1.5,0.8-2.5
			c0-0.6-0.1-1.1-0.2-1.5c-0.2-0.4-0.4-0.8-0.6-1.1c-0.3-0.3-0.6-0.5-1-0.7c-0.4-0.1-0.8-0.2-1.2-0.2c-0.5,0-0.9,0.1-1.2,0.3
			c-0.4,0.2-0.7,0.4-0.9,0.7c-0.3,0.3-0.4,0.7-0.6,1.1C465.3,360.7,465.3,361.2,465.3,361.7z"/>
		<path class="st0" d="M497.4,368.7v2.8c0,0.2-0.1,0.5-0.2,0.6c-0.2,0.2-0.4,0.3-0.6,0.3h-1.3v5.3h-3.9v-5.3h-8.5
			c-0.3,0-0.5-0.1-0.8-0.3c-0.2-0.2-0.4-0.4-0.4-0.7L481,369l9.8-14.4h4.3v14.2H497.4z M491.2,368.7v-6c0-0.4,0-0.8,0-1.2
			c0-0.4,0.1-0.9,0.1-1.3l-5.6,8.6H491.2z"/>
		<path class="st0" d="M508.9,362.7c0.4-0.1,0.8-0.1,1.2-0.2c0.4,0,0.7,0,1.1,0c1.1,0,2.1,0.2,3,0.6c0.9,0.4,1.6,0.9,2.2,1.5
			c0.6,0.6,1,1.4,1.3,2.3c0.3,0.9,0.4,1.8,0.4,2.8c0,1.2-0.2,2.4-0.6,3.4c-0.4,1-1,1.9-1.7,2.6c-0.7,0.7-1.6,1.3-2.6,1.7
			c-1,0.4-2.1,0.6-3.3,0.6c-0.7,0-1.4-0.1-2-0.2c-0.6-0.2-1.2-0.4-1.8-0.6s-1.1-0.6-1.5-0.9c-0.5-0.4-0.9-0.7-1.3-1.1l1.4-2
			c0.1-0.2,0.3-0.4,0.5-0.5c0.2-0.1,0.4-0.2,0.6-0.2c0.3,0,0.6,0.1,0.8,0.3c0.3,0.2,0.5,0.4,0.8,0.6c0.3,0.2,0.7,0.4,1.1,0.6
			s0.9,0.3,1.5,0.3c0.6,0,1.1-0.1,1.5-0.3c0.4-0.2,0.8-0.5,1-0.9c0.3-0.4,0.5-0.8,0.6-1.3c0.1-0.5,0.2-1,0.2-1.6
			c0-1.1-0.3-2-0.9-2.6c-0.6-0.6-1.4-0.9-2.5-0.9c-1,0-1.9,0.2-2.8,0.6l-2.8-0.8l1.8-11.6h10.9v2c0,0.3-0.1,0.6-0.1,0.9
			c-0.1,0.3-0.3,0.5-0.5,0.7c-0.2,0.2-0.5,0.4-0.8,0.5c-0.3,0.1-0.7,0.2-1.2,0.2h-5.1L508.9,362.7z"/>
	</g>
</g>
</svg>
