<?xml version="1.0" encoding="UTF-8"?><svg id="Livello_1" xmlns="http://www.w3.org/2000/svg" viewBox="0 0 250 120"><defs><style>.cls-1{fill:#1d1d1b;}</style></defs><g><path class="cls-1" d="M31.88,73.02l-1.96,6.9h-1.34l-1.2-4.28c-.02-.06-.04-.14-.06-.22-.02-.08-.04-.16-.06-.26-.02,.08-.04,.18-.06,.26-.02,.08-.04,.16-.06,.22l-1.2,4.28h-1.34l-1.96-6.9h1.24c.12,0,.24,.04,.32,.1s.14,.14,.16,.26l.86,3.6c.02,.12,.06,.24,.08,.38s.06,.28,.08,.42c.06-.3,.12-.56,.2-.8l1.02-3.6c.02-.08,.08-.16,.16-.24,.08-.08,.18-.1,.3-.1h.44c.12,0,.24,.04,.3,.1,.08,.06,.14,.14,.18,.26l1.02,3.6c.08,.22,.14,.48,.18,.76,.02-.14,.04-.28,.08-.4,.02-.12,.06-.24,.08-.36l.88-3.6c.02-.1,.08-.18,.16-.24,.08-.06,.2-.1,.32-.1h1.18v-.04Z"/><polygon class="cls-1" points="33.8 73.02 33.8 79.92 37.88 79.92 37.88 78.7 35.3 78.7 35.3 77.06 37.28 77.06 37.28 75.86 35.3 75.86 35.3 74.26 37.88 74.26 37.88 73.02 33.8 73.02"/><polygon class="cls-1" points="40.1 73.02 40.1 79.92 43.92 79.92 43.92 78.64 41.56 78.64 41.56 73.02 40.1 73.02"/><polygon class="cls-1" points="45.96 73.02 45.96 79.92 49.78 79.92 49.78 78.64 47.44 78.64 47.44 73.02 45.96 73.02"/><path class="cls-1" d="M57.36,73.02v6.9h-.76c-.12,0-.2-.02-.28-.06s-.16-.1-.22-.2l-2.98-4.12c.02,.12,.02,.24,.02,.36v4.02h-1.3v-6.9h.94s.08,.02,.12,.04c.04,.02,.06,.04,.1,.08s.06,.08,.1,.12l3.02,4.14c-.02-.14-.02-.26-.04-.38v-4h1.28Z"/><polygon class="cls-1" points="59.9 73.02 59.9 79.92 63.98 79.92 63.98 78.7 61.38 78.7 61.38 77.06 63.36 77.06 63.36 75.86 61.38 75.86 61.38 74.26 63.98 74.26 63.98 73.02 59.9 73.02"/><g><path class="cls-1" d="M69.68,74.42c-.04,.08-.08,.14-.14,.16-.04,.04-.1,.06-.18,.06-.06,0-.14-.02-.22-.06s-.16-.1-.26-.16-.2-.1-.34-.16c-.12-.04-.26-.06-.42-.06-.28,0-.48,.06-.62,.2-.14,.12-.2,.3-.2,.52,0,.14,.04,.26,.12,.34,.08,.1,.18,.16,.32,.24,.14,.06,.28,.12,.46,.18,.16,.06,.34,.12,.52,.18,.18,.06,.36,.14,.52,.24,.16,.1,.32,.2,.46,.36,.14,.14,.24,.32,.32,.52s.12,.44,.12,.74c0,.32-.06,.62-.16,.9s-.24,.52-.44,.72-.42,.38-.72,.48-.6,.18-.96,.18c-.2,0-.4-.02-.6-.06s-.4-.1-.6-.18-.38-.18-.54-.28c-.16-.12-.32-.24-.44-.38l.44-.74c.04-.06,.08-.1,.14-.14,.06-.04,.12-.06,.18-.06,.08,0,.18,.04,.26,.08,.08,.06,.18,.12,.3,.2s.24,.14,.38,.2c.14,.06,.32,.08,.52,.08,.26,0,.48-.06,.62-.2,.14-.12,.22-.34,.22-.6,0-.16-.04-.3-.12-.4s-.18-.18-.32-.26c-.14-.06-.28-.12-.44-.18-.16-.06-.34-.1-.52-.16s-.34-.14-.52-.22c-.16-.08-.32-.2-.46-.36-.14-.14-.24-.32-.32-.54-.08-.22-.12-.48-.12-.82,0-.26,.06-.5,.14-.76,.1-.24,.24-.46,.42-.66s.42-.34,.68-.46,.58-.18,.92-.18c.2,0,.38,.02,.56,.06s.36,.08,.52,.14c.16,.06,.32,.14,.46,.24,.14,.08,.28,.2,.38,.3l-.32,.76Z"/><path class="cls-1" d="M75.8,74.42c-.04,.08-.08,.14-.14,.16-.04,.04-.1,.06-.18,.06-.06,0-.14-.02-.22-.06s-.16-.1-.26-.16-.2-.1-.34-.16c-.12-.04-.26-.06-.42-.06-.28,0-.48,.06-.62,.2-.14,.12-.2,.3-.2,.52,0,.14,.04,.26,.12,.34,.08,.1,.18,.16,.32,.24,.14,.06,.28,.12,.46,.18,.16,.06,.34,.12,.52,.18,.18,.06,.36,.14,.52,.24,.16,.1,.32,.2,.46,.36,.14,.14,.24,.32,.32,.52s.12,.44,.12,.74c0,.32-.06,.62-.16,.9s-.24,.52-.44,.72-.42,.38-.72,.48-.6,.18-.96,.18c-.2,0-.4-.02-.6-.06s-.4-.1-.6-.18-.38-.18-.54-.28c-.16-.12-.32-.24-.44-.38l.44-.74c.04-.06,.08-.1,.14-.14,.06-.04,.12-.06,.18-.06,.08,0,.18,.04,.26,.08,.08,.06,.18,.12,.3,.2s.24,.14,.38,.2c.14,.06,.32,.08,.52,.08,.26,0,.48-.06,.62-.2,.14-.12,.22-.34,.22-.6,0-.16-.04-.3-.12-.4s-.18-.18-.32-.26c-.14-.06-.28-.12-.44-.18-.16-.06-.34-.1-.52-.16s-.34-.14-.52-.22c-.16-.08-.32-.2-.46-.36-.14-.14-.24-.32-.32-.54-.08-.22-.12-.48-.12-.82,0-.26,.06-.5,.14-.76,.1-.24,.24-.46,.42-.66s.42-.34,.68-.46,.58-.18,.92-.18c.2,0,.38,.02,.56,.06s.36,.08,.52,.14c.16,.06,.32,.14,.46,.24,.14,.08,.28,.2,.38,.3l-.32,.76Z"/><path class="cls-1" d="M83.08,76.86c-.16,.14-.28,.3-.34,.46-.06,.16-.1,.34-.1,.52,0,.16,.02,.28,.06,.42,.04,.12,.1,.22,.18,.32s.18,.16,.28,.2,.24,.08,.36,.08c.2,0,.38-.02,.54-.08s.32-.14,.48-.24l-1.46-1.68Zm4.34,3.06h-1.34c-.06,0-.12,0-.18-.02-.06,0-.1-.02-.14-.04-.04-.02-.08-.04-.12-.08s-.08-.08-.14-.14l-.28-.32c-.28,.2-.58,.36-.9,.48-.32,.12-.68,.18-1.04,.18-.26,0-.5-.04-.74-.14s-.46-.24-.64-.4c-.18-.18-.34-.38-.46-.64-.12-.24-.18-.52-.18-.84,0-.2,.02-.4,.08-.6,.06-.18,.14-.36,.26-.52,.1-.16,.24-.3,.38-.44s.32-.24,.5-.34c-.14-.22-.24-.46-.3-.68-.06-.22-.1-.44-.1-.64,0-.24,.04-.48,.12-.7s.2-.42,.36-.58c.16-.16,.36-.3,.58-.4,.24-.1,.5-.14,.8-.14,.28,0,.52,.04,.74,.14,.22,.08,.4,.2,.54,.36,.14,.14,.26,.32,.34,.5,.08,.2,.14,.38,.16,.6l-.88,.18c-.16,.04-.26-.04-.34-.2-.06-.16-.14-.28-.24-.38-.08-.08-.2-.12-.36-.12-.1,0-.18,.02-.26,.06s-.14,.1-.18,.16c-.06,.06-.08,.14-.12,.24-.02,.08-.04,.18-.04,.28,0,.08,0,.16,.02,.24s.04,.16,.06,.22c.04,.08,.08,.16,.12,.24,.06,.08,.12,.18,.2,.26l1.56,1.8c.08-.18,.14-.38,.2-.6,.04-.2,.08-.42,.1-.64,0-.08,.04-.16,.08-.2,.04-.06,.1-.08,.18-.08h.86c0,.46-.06,.88-.16,1.28-.12,.4-.28,.76-.48,1.1l1.38,1.56Z"/><path class="cls-1" d="M96.02,74.42c-.04,.08-.08,.14-.14,.16-.04,.04-.1,.06-.18,.06-.06,0-.14-.02-.22-.06s-.16-.1-.26-.16-.2-.1-.34-.16c-.12-.04-.26-.06-.42-.06-.28,0-.48,.06-.62,.2-.14,.12-.2,.3-.2,.52,0,.14,.04,.26,.12,.34,.08,.1,.18,.16,.32,.24,.14,.06,.28,.12,.46,.18,.16,.06,.34,.12,.52,.18,.18,.06,.36,.14,.52,.24,.16,.1,.32,.2,.46,.36,.14,.14,.24,.32,.32,.52s.12,.44,.12,.74c0,.32-.06,.62-.16,.9s-.24,.52-.44,.72-.42,.38-.72,.48c-.28,.12-.6,.18-.96,.18-.2,0-.4-.02-.6-.06s-.4-.1-.6-.18-.38-.18-.54-.28c-.16-.12-.32-.24-.44-.38l.44-.74c.04-.06,.08-.1,.14-.14,.06-.04,.12-.06,.18-.06,.08,0,.18,.04,.26,.08,.08,.06,.18,.12,.3,.2s.24,.14,.38,.2c.14,.06,.32,.08,.52,.08,.26,0,.48-.06,.62-.2,.14-.12,.22-.34,.22-.6,0-.16-.04-.3-.12-.4s-.18-.18-.32-.26c-.14-.06-.28-.12-.44-.18-.16-.06-.34-.1-.52-.16s-.34-.14-.52-.22c-.16-.08-.32-.2-.46-.36-.14-.14-.24-.32-.32-.54-.08-.22-.12-.48-.12-.82,0-.26,.06-.5,.14-.76,.1-.24,.24-.46,.42-.66s.42-.34,.68-.46,.58-.18,.92-.18c.2,0,.38,.02,.56,.06s.36,.08,.52,.14c.16,.06,.32,.14,.46,.24,.14,.08,.28,.2,.38,.3l-.32,.76Z"/></g><polygon class="cls-1" points="102.68 73.02 102.68 75.92 100.12 75.92 100.12 73.02 98.64 73.02 98.64 79.92 100.12 79.92 100.12 77 102.68 77 102.68 79.92 104.16 79.92 104.16 73.02 102.68 73.02"/><g><path class="cls-1" d="M111.4,76.48c0-.34-.04-.64-.12-.92-.08-.28-.2-.5-.34-.7-.16-.18-.34-.34-.56-.44s-.48-.16-.76-.16-.54,.06-.76,.16-.4,.24-.56,.44c-.16,.18-.26,.42-.34,.7s-.12,.58-.12,.92,.04,.66,.12,.92c.08,.28,.2,.5,.34,.7,.16,.18,.34,.34,.56,.44s.48,.16,.76,.16,.54-.06,.76-.16,.4-.24,.56-.44c.16-.18,.26-.42,.34-.7,.08-.28,.12-.58,.12-.92m1.52,0c0,.5-.08,.96-.24,1.4-.16,.42-.38,.8-.66,1.12-.28,.32-.64,.56-1.04,.74s-.86,.26-1.34,.26-.94-.08-1.34-.26c-.4-.18-.76-.42-1.04-.74-.28-.32-.52-.7-.66-1.12-.16-.42-.24-.9-.24-1.4s.08-.96,.24-1.4c.16-.42,.38-.8,.66-1.12,.28-.32,.64-.56,1.04-.74s.86-.26,1.34-.26,.94,.1,1.34,.28,.74,.42,1.04,.74c.28,.32,.5,.68,.66,1.12,.16,.42,.24,.88,.24,1.38"/><path class="cls-1" d="M123.54,73.02l-1.96,6.9h-1.34l-1.2-4.28c-.02-.06-.04-.14-.06-.22-.02-.08-.04-.16-.06-.26-.02,.08-.04,.18-.06,.26-.02,.08-.04,.16-.06,.22l-1.2,4.28h-1.34l-1.96-6.9h1.24c.12,0,.24,.04,.32,.1,.08,.06,.14,.14,.16,.26l.86,3.6c.02,.12,.06,.24,.08,.38,.02,.14,.06,.28,.08,.42,.06-.3,.12-.56,.2-.8l1.02-3.6c.02-.08,.08-.16,.16-.24,.08-.08,.18-.1,.3-.1h.44c.12,0,.24,.04,.3,.1,.08,.06,.14,.14,.18,.26l1.02,3.6c.08,.22,.14,.48,.18,.76,.02-.14,.04-.28,.08-.4,.02-.12,.06-.24,.08-.36l.88-3.6c.02-.1,.08-.18,.16-.24,.08-.06,.2-.1,.32-.1h1.18v-.04Z"/></g><polygon class="cls-1" points="125.48 73.02 125.48 79.92 129.56 79.92 129.56 78.7 126.96 78.7 126.96 77.06 128.96 77.06 128.96 75.86 126.96 75.86 126.96 74.26 129.56 74.26 129.56 73.02 125.48 73.02"/><path class="cls-1" d="M133.82,76.28c.2,0,.38-.02,.5-.08,.14-.06,.26-.14,.34-.22,.08-.1,.16-.22,.2-.34,.04-.14,.06-.28,.06-.42,0-.3-.1-.54-.28-.7s-.46-.26-.84-.26h-.6v2.04h.62v-.02Zm3.12,3.64h-1.34c-.24,0-.42-.1-.52-.3l-1.06-2c-.06-.08-.1-.14-.16-.18s-.14-.06-.26-.06h-.38v2.56h-1.46v-6.9h2.06c.46,0,.84,.06,1.18,.16,.32,.1,.58,.24,.8,.42,.2,.18,.36,.4,.44,.64,.1,.24,.14,.52,.14,.82,0,.22-.02,.44-.08,.64-.06,.2-.14,.38-.24,.56-.1,.16-.24,.32-.4,.46s-.34,.24-.54,.32c.1,.06,.18,.12,.26,.2,.08,.08,.16,.18,.22,.28l1.34,2.38Z"/></g><g><path class="cls-1" d="M155.72,53.84c0-3.04-1.12-5.52-3.36-7.42-1.92-1.64-4.32-2.44-7.16-2.44-3.12,0-5.66,.94-7.64,2.8-1.96,1.86-2.94,4.22-2.94,7.08s.96,5.34,2.88,7.16c1.92,1.82,4.48,2.72,7.7,2.72s5.74-.92,7.64-2.74c1.92-1.86,2.88-4.24,2.88-7.16m3.88,0c0,4.28-1.5,7.74-4.52,10.38-2.64,2.3-5.94,3.46-9.86,3.46s-7.28-1.16-9.92-3.5c-3.02-2.64-4.52-6.08-4.52-10.34s1.54-7.62,4.6-10.3c2.66-2.36,5.94-3.54,9.82-3.54s7.18,1.18,9.84,3.54c3.04,2.68,4.56,6.12,4.56,10.3"/><polygon class="cls-1" points="23.9 40.8 21.72 40.8 21.72 41.74 23.9 44.02 23.9 51.38 5.9 51.38 5.9 40.8 2.18 40.8 0 40.8 0 41.74 2.18 44.02 2.18 66.88 5.9 66.88 5.9 55.28 23.9 55.28 23.9 66.88 27.62 66.88 27.62 40.8 23.9 40.8"/><path class="cls-1" d="M46.12,40.8l-11.72,26.16,4.08-.02,2.56-5.86,15.12-.1,2.62,5.82,4.08-.02-12.06-26-4.68,.02Zm2.4,3.72l5.8,12.6-11.52,.06,5.72-12.66Z"/><polygon class="cls-1" points="67 40.8 67 41.74 69.16 44.02 69.16 66.88 72.9 66.88 72.9 56.94 87.04 56.94 87.04 53.04 72.9 53.04 72.9 44.68 92.82 44.68 92.82 40.8 67 40.8"/><path class="cls-1" d="M103.32,53.04v-8.36h13.1c3.1,0,4.66,1.44,4.66,4.32,0,2.7-1.44,4.04-4.32,4.04h-13.44Zm-5.9-12.24v.94l2.18,2.26v22.86h3.72v-9.92h7.16c2.66,0,5.24,.82,7.16,2.44,2.24,1.9,3.34,4.44,3.34,7.5h3.88c0-4.18-1.52-7.68-4.56-10.38-.04-.02-.08-.06-.1-.08,1.24-.42,2.24-1.1,3.02-2.08,1.1-1.34,1.64-3.12,1.64-5.32,0-2.52-.68-4.52-2.02-6-1.32-1.5-3.16-2.22-5.52-2.22h-19.9Z"/></g></svg>